Coordinates
version=1
nRows=7
nColumns=40
inDegrees=yes

Units are S.I. units (second, meters, Newtons, ...)
Angles are in degrees.

endheader
time	pelvis_tilt	pelvis_list	pelvis_rotation	pelvis_tx	pelvis_ty	pelvis_tz	hip_flexion_r	hip_adduction_r	hip_rotation_r	knee_angle_r	knee_angle_r_beta	ankle_angle_r	subtalar_angle_r	mtp_angle_r	hip_flexion_l	hip_adduction_l	hip_rotation_l	knee_angle_l	knee_angle_l_beta	ankle_angle_l	subtalar_angle_l	mtp_angle_l	lumbar_extension	lumbar_bending	lumbar_rotation	arm_flex_r	arm_add_r	arm_rot_r	elbow_flex_r	pro_sup_r	wrist_flex_r	wrist_dev_r	arm_flex_l	arm_add_l	arm_rot_l	elbow_flex_l	pro_sup_l	wrist_flex_l	wrist_dev_l
     49.85914286	     -6.13606192	     -4.52945003	      6.67609099	      0.92321419	      0.91892010	      0.56378592	      4.88409577	      3.72434386	    -14.45673663	     15.20020952	     15.20020952	     17.96923091	     -2.64450268	     -3.01284605	     29.00160006	     -7.90293620	     -2.00112661	     13.63003433	     13.63003433	      1.14168820	     -0.95306519	     -2.23514487	     -7.95524441	      4.15287479	      2.18955488	     56.04615816	    -18.01018499	     -5.90335354	     79.25164461	     44.94684411	      0.00000000	      0.00000000	    -10.84480367	     -9.60402837	     13.19431914	     33.30112567	     43.52829535	      0.00000000	      0.00000000
     49.87828571	     -6.22947718	     -4.57673013	      6.76129498	      0.92410146	      0.91809304	      0.56054723	      4.37000602	      3.63837546	    -14.46089028	     14.96862696	     14.96862696	     18.23495212	     -2.62126053	     -3.02565563	     28.98335552	     -7.78989749	     -2.29712231	     14.25268811	     14.25268811	      0.81151093	     -1.46785811	     -2.28767356	     -7.73971103	      3.95201074	      2.16106965	     56.32748600	    -17.93214866	     -5.91064316	     79.33432501	     44.94675309	      0.00000000	      0.00000000	    -10.24862360	     -9.73520266	     13.12951402	     33.50525944	     43.55045570	      0.00000000	      0.00000000
     49.89742857	     -6.06639009	     -4.85407253	      6.86418049	      0.92535205	      0.91730707	      0.55716657	      3.44204402	      3.85352873	    -14.55955702	     14.45697229	     14.45697229	     18.40458873	     -2.29615218	     -2.93809777	     29.23389596	     -7.89569882	     -1.87386749	     15.89298705	     15.89298705	      0.65870531	     -3.00396307	     -2.86633991	     -7.76580296	      4.04693296	      2.28366476	     56.54176230	    -18.03901339	     -6.17909218	     79.37476821	     44.95966802	      0.00000000	      0.00000000	     -9.67359194	     -9.84538115	     12.94015614	     33.84189679	     43.60185567	      0.00000000	      0.00000000
     49.91657143	     -5.97797482	     -4.92609263	      6.90603870	      0.92667886	      0.91664506	      0.55366654	      2.69734230	      3.80095417	    -14.58445775	     14.20150107	     14.20150107	     18.62962459	     -2.16595534	     -2.89706662	     29.31561867	     -7.79542169	     -1.58194391	     17.18040658	     17.18040658	      0.46956087	     -4.25383772	     -3.18431464	     -7.72427957	      3.86490350	      2.36495267	     56.42618754	    -17.97870459	     -6.34654399	     79.34418869	     44.96876759	      0.00000000	      0.00000000	     -8.93538431	    -10.03185941	     12.73136007	     34.18468423	     43.65240139	      0.00000000	      0.00000000
     49.93571429	     -5.86676885	     -5.08103385	      6.92133063	      0.92802517	      0.91612126	      0.55006167	      1.97482152	      3.81624706	    -14.59544902	     14.00378267	     14.00378267	     18.73986324	     -1.98189162	     -2.81456217	     29.47807049	     -7.72672627	     -0.92271831	     18.63452616	     18.63452616	      0.39181359	     -5.80952140	     -3.40538421	     -7.70247726	      3.81841195	      2.47325290	     56.21469920	    -18.04352722	     -6.65804911	     79.24400817	     44.98531843	      0.00000000	      0.00000000	     -8.13844138	    -10.16833802	     12.43031431	     34.59600786	     43.71883201	      0.00000000	      0.00000000
     49.95485714	     -5.79283325	     -5.16850130	      6.89582688	      0.92938194	      0.91576481	      0.54632060	      1.33372980	      3.72590317	    -14.62390778	     13.89705831	     13.89705831	     18.78990324	     -1.85208471	     -2.70323011	     29.57902010	     -7.54007327	     -0.16197129	     19.93501380	     19.93501380	      0.46380812	     -7.37943866	     -3.37685876	     -7.66145427	      3.70686515	      2.68419196	     55.86206989	    -18.05981940	     -7.00311613	     79.05855905	     45.00571559	      0.00000000	      0.00000000	     -7.21106716	    -10.31299105	     12.01442910	     35.05552117	     43.80442352	      0.00000000	      0.00000000
     49.97400000	     -5.70903051	     -5.21829851	      6.79445757	      0.93068469	      0.91564032	      0.54257718	      0.74464440	      3.56661872	    -14.58356530	     13.90267847	     13.90267847	     18.80355932	     -1.70711136	     -2.59383426	     29.61525480	     -7.31670546	      0.56125283	     21.16967573	     21.16967573	      0.77924768	     -8.87555946	     -3.13068783	     -7.65906902	      3.54978392	      2.91149477	     55.42706346	    -18.10272362	     -7.36602172	     78.74134621	     45.03087799	      0.00000000	      0.00000000	     -6.24461291	    -10.46615298	     11.50345063	     35.50609245	     43.90325408	      0.00000000	      0.00000000
